<svg width="16" height="16" xmlns="http://www.w3.org/2000/svg">
 <defs>
  <filter color-interpolation-filters="sRGB" filterUnits="userSpaceOnUse" height="28" width="28" y="0" x="0" id="filter0_d_7456_2163">
   <feGaussianBlur stdDeviation="3"/>
  </filter>
 </defs>
 <g>
  <title>background</title>
  <rect fill="none" id="canvas_background" height="18" width="18" y="-1" x="-1"/>
 </g>
 <g>
  <title>Layer 1</title>
  <g id="svg_1" filter="url(#filter0_d_7456_2163)">
   <circle id="svg_2" fill="#2BE080" r="8" cy="8" cx="8"/>
  </g>
  <path id="svg_3" fill="white" d="m8,14c3.3137,0 6,-2.6863 6,-6c0,-3.31371 -2.6863,-6 -6,-6c-3.3137,0 -6,2.68629 -6,6c0,3.3137 2.6863,6 6,6zm0,2c4.4183,0 8,-3.5817 8,-8c0,-4.41828 -3.5817,-8 -8,-8c-4.41828,0 -8,3.58172 -8,8c0,4.4183 3.58172,8 8,8z" clip-rule="evenodd" fill-rule="evenodd"/>
 </g>
</svg>